<?xml version="1.0" encoding="UTF-8"?>
<svg id="Layer_1" xmlns="http://www.w3.org/2000/svg" xmlns:xlink="http://www.w3.org/1999/xlink" version="1.1" viewBox="0 0 800 274.2">
  <!-- Generator: Adobe Illustrator 29.6.1, SVG Export Plug-In . SVG Version: 2.1.1 Build 9)  -->
  <defs>
    <style>
      .st0 {
        fill: url(#linear-gradient2);
      }

      .st1 {
        fill: url(#linear-gradient1);
      }

      .st2 {
        fill: url(#linear-gradient3);
      }

      .st3 {
        fill: url(#linear-gradient);
      }

      .st4 {
        fill: #fff;
      }
    </style>
    <linearGradient id="linear-gradient" x1="154.9" y1="56.2" x2="193.8" y2="91.3" gradientUnits="userSpaceOnUse">
      <stop offset="0" stop-color="#ff4635"/>
      <stop offset="1" stop-color="#007bff"/>
    </linearGradient>
    <linearGradient id="linear-gradient1" x1="104.6" y1="138.1" x2="120.2" y2="104" gradientUnits="userSpaceOnUse">
      <stop offset="0" stop-color="#ecd402"/>
      <stop offset=".2" stop-color="#f0b40d"/>
      <stop offset=".8" stop-color="#fa6529"/>
      <stop offset="1" stop-color="#ff4635"/>
    </linearGradient>
    <linearGradient id="linear-gradient2" x1="188.8" y1="146.5" x2="230.8" y2="89.6" gradientUnits="userSpaceOnUse">
      <stop offset="0" stop-color="#ff4635"/>
      <stop offset="0" stop-color="#45ff00"/>
      <stop offset=".5" stop-color="#007bff"/>
    </linearGradient>
    <linearGradient id="linear-gradient3" x1="124.6" y1="158.7" x2="169.6" y2="185.5" gradientUnits="userSpaceOnUse">
      <stop offset=".2" stop-color="#ecd402"/>
      <stop offset=".4" stop-color="#ccdc01"/>
      <stop offset=".7" stop-color="#7df000"/>
      <stop offset="1" stop-color="#45ff00"/>
    </linearGradient>
  </defs>
  <polygon points="443.3 232.1 260.4 232.1 266.1 195.6 449 195.6 443.3 232.1"/>
  <g>
    <path d="M276.2,87.8l5.5-31.4h-11l1.4-8.2h32.2l-1.4,8.2h-11l-5.5,31.4h-10.1Z"/>
    <path d="M301.2,87.8l7-39.5h30.3l-1.4,8.2h-20.1l-1.3,7.3h18.1l-1.3,7.6h-18.2l-1.4,8.4h20.1l-1.4,8.2h-30.3Z"/>
    <path d="M334.1,87.8l13.1-20.7-6.1-18.8h10.8l4.4,14.8h1.9l8-14.8h12.4l-12.8,18.8,5.8,20.7h-11.1l-4-15.7h-1.9l-8.2,15.7h-12.5Z"/>
    <path d="M372.8,87.8l18.8-39.5h16.4l4.5,39.5h-10.2l-.6-7.9h-14.1l-3.3,7.9h-11.4ZM390.8,72.2h10.3l-1.3-16.4h-1.9l-7.1,16.4Z"/>
    <path d="M415.4,87.8l1.4-8h20.7l2.3-1.9.8-4.4-1.6-1.9h-16.3l-4.9-6,2-11.4,7-6h26.1l-1.4,8h-20.2l-2.3,1.9-.6,3.5,1.6,1.9h16.3l4.9,6-2.1,12.3-7,6h-26.6Z"/>
    <path d="M467.1,87.8l7-39.5h30.3l-1.4,8.2h-20.1l-1.3,7.3h18.1l-1.3,7.6h-18.2l-1.4,8.4h20.1l-1.4,8.2h-30.3Z"/>
    <path d="M502.9,87.8l1.4-8h20.7l2.3-1.9.8-4.4-1.6-1.9h-16.3l-4.9-6,2-11.4,7-6h26.1l-1.4,8h-20.2l-2.3,1.9-.6,3.5,1.6,1.9h16.3l4.9,6-2.1,12.3-7,6h-26.6Z"/>
    <path d="M541.4,87.8l7-39.5h26.7l4.9,6-2.7,15.2-7,6h-16.5l-2.2,12.4h-10.1ZM555.1,67.8h10.8l2.2-1.9,1.4-8.2-1.6-1.9h-10.8l-2.1,11.9Z"/>
    <path d="M583.2,87.8l-4.9-6,4.8-27.6,7-6h23.4l4.9,6-4.8,27.6-7,6h-23.4ZM590.7,80.2h11.3l2.2-1.9,3.6-20.5-1.7-1.9h-11.2l-2.3,1.9-3.6,20.5,1.6,1.9Z"/>
    <path d="M618.8,87.8l7-39.5h27.1l5,6-2.5,14.2-5.6,4.7,3.4,14.7h-9.6l-2.8-13.5h-9.4l-2.4,13.5h-10.1ZM632.6,66.7h11.3l2.3-1.9,1.2-7.1-1.6-1.9h-11.3l-1.9,10.8Z"/>
    <path d="M665,87.8l5.5-31.4h-11l1.4-8.2h32.2l-1.4,8.2h-11l-5.5,31.4h-10.1Z"/>
    <path d="M689.1,87.8l1.4-8h20.7l2.3-1.9.8-4.4-1.6-1.9h-16.3l-4.9-6,2-11.4,7-6h26.1l-1.4,8h-20.2l-2.3,1.9-.6,3.5,1.6,1.9h16.3l4.9,6-2.1,12.3-7,6h-26.6Z"/>
    <path d="M273.4,141.6l-4.9-6,4.8-27.6,7-6h20.5l4.9,6-1.4,8h-9.9l.8-4.5-1.6-1.9h-8.6l-2.3,1.9-3.6,20.5,1.6,1.9h9l2.3-1.9.8-4.5h9.8l-1.4,8-7,6h-20.9Z"/>
    <path d="M309.4,141.6l-4.9-6,4.8-27.6,7-6h23.4l4.9,6-4.8,27.6-7,6h-23.4ZM316.8,134h11.3l2.2-1.9,3.6-20.5-1.7-1.9h-11.2l-2.3,1.9-3.6,20.5,1.6,1.9Z"/>
    <path d="M345,141.6l7-39.5h10.4l9.5,24.8,4.4-24.8h9.4l-7,39.5h-9.4l-8.9-23.2h-1.9l-4.1,23.2h-9.4Z"/>
    <path d="M386,141.6l7-39.5h29.9l-1.4,8.2h-19.8l-1.4,8.4h17.3l-1.3,7.6h-17.3l-2.7,15.4h-10.1Z"/>
    <path d="M420.3,141.6l7-39.5h30.3l-1.4,8.2h-20.1l-1.3,7.3h18.1l-1.3,7.6h-18.2l-1.4,8.4h20.1l-1.4,8.2h-30.3Z"/>
    <path d="M456.8,141.6l7-39.5h27.1l5,6-2.5,14.2-5.6,4.7,3.4,14.7h-9.6l-2.8-13.5h-9.4l-2.4,13.5h-10.1ZM470.6,120.5h11.3l2.3-1.9,1.2-7.1-1.6-1.9h-11.3l-1.9,10.8Z"/>
    <path d="M496.6,141.6l7-39.5h30.3l-1.4,8.2h-20.1l-1.3,7.3h18.1l-1.3,7.6h-18.2l-1.4,8.4h20.1l-1.4,8.2h-30.3Z"/>
    <path d="M533.1,141.6l7-39.5h10.4l9.5,24.8,4.4-24.8h9.4l-7,39.5h-9.4l-8.9-23.2h-1.9l-4.1,23.2h-9.4Z"/>
    <path d="M579,141.6l-4.9-6,4.8-27.6,7-6h20.5l4.9,6-1.4,8h-9.9l.8-4.5-1.6-1.9h-8.6l-2.3,1.9-3.6,20.5,1.6,1.9h9l2.3-1.9.8-4.5h9.8l-1.4,8-7,6h-20.9Z"/>
    <path d="M610.1,141.6l7-39.5h30.3l-1.4,8.2h-20.1l-1.3,7.3h18.1l-1.3,7.6h-18.2l-1.4,8.4h20.1l-1.4,8.2h-30.3Z"/>
    <path d="M267.4,183.7l.9-5.2h13.4l1.5-1.2.5-2.8-1-1.2h-10.5l-3.2-3.9,1.3-7.4,4.5-3.9h16.9l-.9,5.2h-13l-1.5,1.2-.4,2.3,1,1.2h10.5l3.2,3.9-1.4,8-4.5,3.9h-17.2Z"/>
    <path d="M292.3,183.7l4.5-25.6h19.6l-.9,5.3h-13l-.8,4.7h11.7l-.8,4.9h-11.8l-.9,5.4h13l-.9,5.3h-19.6Z"/>
    <path d="M313.3,183.7l12.1-25.6h10.6l2.9,25.6h-6.6l-.4-5.1h-9.1l-2.2,5.1h-7.4ZM324.9,173.6h6.7l-.8-10.6h-1.2l-4.6,10.6Z"/>
    <path d="M340.8,183.7l.9-5.2h13.4l1.5-1.2.5-2.8-1-1.2h-10.5l-3.2-3.9,1.3-7.4,4.5-3.9h16.9l-.9,5.2h-13l-1.5,1.2-.4,2.3,1,1.2h10.5l3.2,3.9-1.4,8-4.5,3.9h-17.2Z"/>
    <path d="M368.9,183.7l-3.2-3.9,3.1-17.9,4.5-3.9h15.1l3.2,3.9-3.1,17.9-4.5,3.9h-15.1ZM373.7,178.8h7.3l1.4-1.2,2.4-13.3-1.1-1.2h-7.2l-1.5,1.2-2.4,13.3,1,1.2Z"/>
    <path d="M391.9,183.7l4.5-25.6h6.7l6.2,16,2.8-16h6.1l-4.5,25.6h-6.1l-5.8-15h-1.2l-2.6,15h-6.1Z"/>
    <path d="M424.4,183.7l12.1-25.6h10.6l2.9,25.6h-6.6l-.4-5.1h-9.1l-2.2,5.1h-7.4ZM436,173.6h6.7l-.8-10.6h-1.2l-4.6,10.6Z"/>
    <path d="M452.5,183.7l4.5-25.6h6.6l-3.6,20.3h11.8l-.9,5.3h-18.3Z"/>
    <path d="M473.7,183.7l4.5-25.6h17.2l3.2,3.9-1.7,9.9-4.5,3.9h-10.7l-1.4,8h-6.6ZM482.5,170.8h7l1.4-1.2.9-5.3-1-1.2h-7l-1.4,7.7Z"/>
    <path d="M497.6,183.7l4.5-25.6h6.6l-1.7,9.5h8.7l1.7-9.5h6.6l-4.5,25.6h-6.6l1.9-11h-8.7l-1.9,11h-6.6Z"/>
    <path d="M521.5,183.7l12.1-25.6h10.6l2.9,25.6h-6.6l-.4-5.1h-9.1l-2.2,5.1h-7.4ZM533.1,173.6h6.7l-.8-10.6h-1.2l-4.6,10.6Z"/>
    <path class="st4" d="M272,223.4l.6-3.3h8.6l.9-.8.3-1.8-.6-.8h-6.8l-2-2.5.8-4.7,2.9-2.5h10.8l-.6,3.3h-8.4l-.9.8-.2,1.4.6.8h6.8l2,2.5-.9,5.1-2.9,2.5h-11.1Z"/>
    <path class="st4" d="M290,223.4l-2-2.5,2-11.5,2.9-2.5h9.7l2,2.5-2,11.5-2.9,2.5h-9.7ZM293.1,220.2h4.7l.9-.8,1.5-8.5-.7-.8h-4.6l-.9.8-1.5,8.5.7.8Z"/>
    <path class="st4" d="M307.2,223.4l-2-2.5,2.5-14h4.2l-2.2,12.5.6.8h4.5l.9-.8,2.2-12.5h4.2l-2.5,14-2.9,2.5h-9.6Z"/>
    <path class="st4" d="M325.3,223.4l2.3-13h-4.6l.6-3.4h13.4l-.6,3.4h-4.6l-2.3,13h-4.2Z"/>
    <path class="st4" d="M335.7,223.4l2.9-16.4h4.2l-1.1,6.1h5.6l1.1-6.1h4.2l-2.9,16.4h-4.2l1.2-7.1h-5.6l-1.2,7.1h-4.2Z"/>
    <path class="st4" d="M361.4,223.4l2.3-13h-4.6l.6-3.4h13.4l-.6,3.4h-4.6l-2.3,13h-4.2Z"/>
    <path class="st4" d="M371.9,223.4l2.9-16.4h12.6l-.6,3.4h-8.4l-.5,3h7.5l-.5,3.1h-7.6l-.6,3.5h8.4l-.6,3.4h-12.6Z"/>
    <path class="st4" d="M385.5,223.4l5.5-8.6-2.5-7.8h4.5l1.8,6.2h.8l3.3-6.2h5.2l-5.3,7.8,2.4,8.6h-4.6l-1.7-6.5h-.8l-3.4,6.5h-5.2Z"/>
    <path class="st4" d="M401.6,223.4l7.8-16.4h6.8l1.9,16.4h-4.2l-.2-3.3h-5.9l-1.4,3.3h-4.7ZM409.1,216.9h4.3l-.5-6.8h-.8l-2.9,6.8Z"/>
    <path class="st4" d="M419.3,223.4l.6-3.3h8.6l.9-.8.3-1.8-.6-.8h-6.8l-2-2.5.8-4.7,2.9-2.5h10.8l-.6,3.3h-8.4l-.9.8-.2,1.4.6.8h6.8l2,2.5-.9,5.1-2.9,2.5h-11.1Z"/>
  </g>
  <g>
    <path d="M77,86.2l1.2-6.5,16.8-12.6.4-2.4-.9-1.1h-4.9l-1.3,1.1-.5,2.9h-7l1-5.7,4.6-3.7h13.3l3.3,3.7-1.3,7.5-15.1,11.1h13.3l-1,5.7h-21.8Z"/>
    <path d="M106.7,86.2l-3.4-4.2,3.4-19.5,4.9-4.2h13.8l3.4,4.2-3.4,19.5-4.9,4.2h-13.8ZM111.7,80.9h5.5l1.5-1.3,2.6-14.5-1.1-1.3h-5.5l-1.5,1.3-2.6,14.5,1.1,1.3Z"/>
  </g>
  <g>
    <path d="M176.8,193.5l1.2-6.5,16.8-12.6.4-2.4-.9-1.1h-4.9l-1.3,1.1-.5,2.9h-7l1-5.7,4.6-3.7h13.3l3.3,3.7-1.3,7.5-15.1,11.1h13.3l-1,5.7h-21.8Z"/>
    <path d="M206.2,193.5l-3.3-3.7,3.6-20.5,4.6-3.7h15l3.3,3.7-.8,4.7h-7.3l.3-1.7-1.1-1.3h-5.8l-1.6,1.3-.7,3.8h11.9l3.3,3.7-1.8,10-4.6,3.7h-15.1ZM211.7,188.1h6.2l1.5-1.3.8-4.5-1.1-1.3h-6.2l-1.6,1.3-.8,4.5,1.1,1.3Z"/>
  </g>
  <polygon class="st3" points="185.4 86.6 193.2 42.1 148.7 42.1 140.9 86.6 159.2 108.8 185.4 86.6"/>
  <polygon class="st1" points="130 100 85.5 100 77.7 144.5 122.2 144.5 148.4 122.3 130 100"/>
  <polygon class="st0" points="193.2 100 167.1 122.3 185.4 144.5 229.9 144.5 237.8 100 193.2 100"/>
  <polygon class="st2" points="130 156.3 122.2 200.8 166.7 200.8 174.6 156.3 156.2 134 130 156.3"/>
</svg>