<?xml version="1.0" encoding="UTF-8"?>
<svg id="Layer_1" xmlns="http://www.w3.org/2000/svg" version="1.1" viewBox="0 0 800 274.2">
  <!-- Generator: Adobe Illustrator 29.6.1, SVG Export Plug-In . SVG Version: 2.1.1 Build 9)  -->
  <defs>
    <style>
      .st0 {
        fill: #45ff00;
      }
    </style>
  </defs>
  <g>
    <path d="M219.5,137.1l6.7-38.3h-13.5l1.8-9.9h39.3l-1.8,9.9h-13.5l-6.7,38.3h-12.4Z"/>
    <path d="M250.1,137.1l8.5-48.2h36.9l-1.8,9.9h-24.5l-1.6,8.9h22.1l-1.6,9.2h-22.2l-1.8,10.2h24.5l-1.8,9.9h-36.9Z"/>
    <path d="M290.2,137.1l16-25.3-7.5-23h13.2l5.4,18.1h2.4l9.8-18.1h15.1l-15.6,23,7.1,25.3h-13.5l-4.8-19.2h-2.4l-9.9,19.2h-15.3Z"/>
    <path d="M337.5,137.1l22.9-48.2h20l5.5,48.2h-12.4l-.7-9.6h-17.2l-4.1,9.6h-13.9ZM359.4,118h12.6l-1.6-20h-2.4l-8.6,20Z"/>
    <path d="M389.4,137.1l1.7-9.8h25.3l2.7-2.3.9-5.4-1.9-2.3h-19.9l-6-7.3,2.4-13.9,8.6-7.3h31.8l-1.7,9.8h-24.6l-2.7,2.3-.7,4.3,1.9,2.3h19.9l6,7.3-2.6,15.1-8.6,7.3h-32.5Z"/>
    <path d="M452.5,137.1l8.5-48.2h36.9l-1.8,9.9h-24.5l-1.6,8.9h22.1l-1.6,9.2h-22.2l-1.8,10.2h24.5l-1.8,9.9h-36.9Z"/>
    <path d="M496.2,137.1l1.7-9.8h25.3l2.7-2.3.9-5.4-1.9-2.3h-19.9l-6-7.3,2.4-13.9,8.6-7.3h31.8l-1.7,9.8h-24.6l-2.8,2.3-.7,4.3,1.9,2.3h19.9l6,7.3-2.6,15.1-8.6,7.3h-32.5Z"/>
    <path d="M543.2,137.1l8.5-48.2h32.5l6,7.3-3.3,18.6-8.6,7.3h-20.2l-2.7,15.1h-12.4ZM559.9,112.7h13.2l2.7-2.3,1.8-9.9-1.9-2.3h-13.2l-2.6,14.5Z"/>
    <path d="M594.2,137.1l-6-7.3,5.9-33.7,8.6-7.3h28.5l6,7.3-5.9,33.7-8.6,7.3h-28.5ZM603.3,127.8h13.7l2.7-2.3,4.5-25.1-2-2.3h-13.6l-2.7,2.3-4.5,25.1,2,2.3Z"/>
    <path d="M637.6,137.1l8.5-48.2h33.1l6.1,7.3-3.1,17.3-6.8,5.8,4.1,17.9h-11.7l-3.5-16.4h-11.5l-2.9,16.4h-12.4ZM654.5,111.4h13.7l2.8-2.3,1.5-8.6-1.9-2.3h-13.7l-2.4,13.2Z"/>
    <path d="M694,137.1l6.7-38.3h-13.5l1.8-9.9h39.3l-1.8,9.9h-13.5l-6.7,38.3h-12.4Z"/>
    <path d="M723.4,137.1l1.7-9.8h25.3l2.7-2.3.9-5.4-1.9-2.3h-19.9l-6-7.3,2.4-13.9,8.6-7.3h31.8l-1.7,9.8h-24.6l-2.8,2.3-.7,4.3,1.9,2.3h19.9l6,7.3-2.6,15.1-8.6,7.3h-32.5Z"/>
    <path d="M210.5,191.6l1.7-9.8h25.3l2.7-2.3.9-5.4-1.9-2.3h-19.9l-6-7.3,2.4-13.9,8.6-7.3h31.8l-1.7,9.8h-24.6l-2.7,2.3-.7,4.3,1.9,2.3h19.9l6,7.3-2.6,15.1-8.6,7.3h-32.5Z"/>
    <path d="M263.5,191.6l-6-7.3,5.9-33.7,8.6-7.3h25.1l6,7.3-1.7,9.8h-12l1-5.4-2-2.3h-10.5l-2.7,2.3-4.5,25.1,2,2.3h10.9l2.8-2.3,1-5.5h12l-1.7,9.8-8.6,7.3h-25.5Z"/>
    <path d="M301.4,191.6l8.5-48.2h12.4l-3.1,17.9h16.4l3.1-17.9h12.4l-8.5,48.2h-12.4l3.7-20.8h-16.4l-3.7,20.8h-12.4Z"/>
    <path d="M357.4,191.6l-6-7.3,5.9-33.7,8.6-7.3h28.5l6,7.3-5.9,33.7-8.6,7.3h-28.5ZM366.5,182.3h13.7l2.7-2.3,4.5-25.1-2-2.3h-13.6l-2.7,2.3-4.5,25.1,2,2.3Z"/>
    <path d="M400.8,191.6l8.5-48.2h12.4l-6.7,38.3h22.3l-1.8,9.9h-34.6Z"/>
    <path d="M437.2,191.6l22.9-48.2h20l5.5,48.2h-12.4l-.7-9.6h-17.2l-4.1,9.6h-13.9ZM459.1,172.6h12.6l-1.6-20h-2.4l-8.6,20Z"/>
    <path d="M489.2,191.6l1.7-9.8h25.3l2.7-2.3.9-5.4-1.9-2.3h-19.9l-6-7.3,2.4-13.9,8.6-7.3h31.8l-1.7,9.8h-24.6l-2.8,2.3-.7,4.3,1.9,2.3h19.9l6,7.3-2.6,15.1-8.6,7.3h-32.5Z"/>
    <path d="M544,191.6l6.7-38.3h-13.5l1.8-9.9h39.3l-1.8,9.9h-13.5l-6.7,38.3h-12.4Z"/>
    <path d="M572.6,191.6l1.6-9.2h5.3l5.2-29.8h-5.2l1.6-9.2h22.5l-1.6,9.2h-5.3l-5.4,29.8h5.4l-1.6,9.2h-22.5Z"/>
    <path d="M608,191.6l-6-7.3,5.9-33.7,8.6-7.3h25.1l6,7.3-1.7,9.8h-12l1-5.4-2-2.3h-10.5l-2.7,2.3-4.5,25.1,2,2.3h10.9l2.8-2.3,1-5.5h12l-1.7,9.8-8.6,7.3h-25.5Z"/>
  </g>
  <path class="st0" d="M125.4,104.5l7.3-41.6h-41.6l-7.3,41.6,17.1,20.8,24.5-20.8ZM73.7,117.1h-41.6l-7.3,41.6h41.6l24.5-20.8-17.1-20.8ZM132.7,117.1l-24.5,20.8,17.1,20.8h41.6l7.3-41.6h-41.6ZM73.7,169.7l-7.3,41.6h41.6l7.3-41.6-17.1-20.8-24.5,20.8Z"/>
</svg>