<?xml version="1.0" encoding="UTF-8"?>
<svg id="Layer_1" xmlns="http://www.w3.org/2000/svg" version="1.1" viewBox="0 0 400 400">
  <!-- Generator: Adobe Illustrator 29.6.1, SVG Export Plug-In . SVG Version: 2.1.1 Build 9)  -->
  <defs>
    <style>
      .st0 {
        fill: #fff;
      }

      .st1 {
        fill: #ff4635;
      }
    </style>
  </defs>
  <rect class="st1" x="9.5" y="9.5" width="381.2" height="381.2"/>
  <g>
    <path class="st0" d="M209.8,293l7.5-42.7h-15l2-11.1h43.7l-2,11.1h-15l-7.5,42.7h-13.7Z"/>
    <path class="st0" d="M244,293l9.5-53.8h40.9l-2,11.1h-27.2l-1.8,9.9h24.5l-1.8,10.3h-24.5l-2,11.4h27.2l-2,11.1h-40.9Z"/>
    <path class="st0" d="M300.3,293l-6.7-8.1,6.6-37.6,9.5-8.1h27.7l6.8,8.1-1.9,10.9h-13.3l1.1-6.1-2.2-2.6h-11.8l-3.1,2.6-4.9,28,2.2,2.6h12.2l3.2-2.6,1.1-6.1h13.2l-1.9,11-9.5,8.1h-28.2Z"/>
  </g>
  <path class="st0" d="M194.8,152l9.7-55h-55l-9.7,55,22.6,27.5,32.3-27.5ZM126.5,168.5h-55l-9.7,55h55l32.3-27.5-22.6-27.5ZM204.5,168.5l-32.3,27.5,22.6,27.5h55l9.7-55h-55ZM126.5,238l-9.7,55h55l9.7-55-22.6-27.5-32.3,27.5Z"/>
</svg>