<?xml version="1.0" encoding="UTF-8"?>
<svg id="Layer_1" xmlns="http://www.w3.org/2000/svg" version="1.1" viewBox="0 0 800 274.2">
  <!-- Generator: Adobe Illustrator 29.6.1, SVG Export Plug-In . SVG Version: 2.1.1 Build 9)  -->
  <defs>
    <style>
      .st0 {
        fill: #007bff;
      }
    </style>
  </defs>
  <g>
    <path d="M203.2,139.7l6.7-38.3h-13.5l1.8-9.9h39.3l-1.8,9.9h-13.5l-6.7,38.3h-12.4Z"/>
    <path d="M233.8,139.7l8.5-48.2h36.9l-1.8,9.9h-24.5l-1.6,8.9h22.1l-1.6,9.2h-22.2l-1.8,10.2h24.5l-1.8,9.9h-36.9Z"/>
    <path d="M273.9,139.7l16-25.3-7.5-23h13.2l5.4,18.1h2.4l9.8-18.1h15.1l-15.6,23,7.1,25.3h-13.5l-4.8-19.2h-2.4l-9.9,19.2h-15.3Z"/>
    <path d="M321.2,139.7l22.9-48.2h20l5.5,48.2h-12.4l-.7-9.6h-17.2l-4.1,9.6h-13.9ZM343,120.7h12.6l-1.6-20h-2.4l-8.6,20Z"/>
    <path d="M373.1,139.7l1.7-9.8h25.3l2.7-2.3.9-5.4-1.9-2.3h-19.9l-6-7.3,2.4-13.9,8.6-7.3h31.8l-1.7,9.8h-24.6l-2.7,2.3-.7,4.3,1.9,2.3h19.9l6,7.3-2.6,15.1-8.6,7.3h-32.5Z"/>
    <path d="M436.2,139.7l8.5-48.2h36.9l-1.8,9.9h-24.5l-1.6,8.9h22.1l-1.6,9.2h-22.2l-1.8,10.2h24.5l-1.8,9.9h-36.9Z"/>
    <path d="M479.9,139.7l1.7-9.8h25.3l2.7-2.3.9-5.4-1.9-2.3h-19.9l-6-7.3,2.4-13.9,8.6-7.3h31.8l-1.7,9.8h-24.6l-2.8,2.3-.7,4.3,1.9,2.3h19.9l6,7.3-2.6,15.1-8.6,7.3h-32.5Z"/>
    <path d="M526.9,139.7l8.5-48.2h32.5l6,7.3-3.3,18.6-8.6,7.3h-20.2l-2.7,15.1h-12.4ZM543.5,115.3h13.2l2.7-2.3,1.8-9.9-1.9-2.3h-13.2l-2.6,14.5Z"/>
    <path d="M577.9,139.7l-6-7.3,5.9-33.7,8.6-7.3h28.5l6,7.3-5.9,33.7-8.6,7.3h-28.5ZM587,130.4h13.7l2.7-2.3,4.5-25.1-2-2.3h-13.6l-2.7,2.3-4.5,25.1,2,2.3Z"/>
    <path d="M621.3,139.7l8.5-48.2h33.1l6.1,7.3-3.1,17.3-6.8,5.8,4.1,17.9h-11.7l-3.5-16.4h-11.5l-2.9,16.4h-12.4ZM638.2,114h13.7l2.8-2.3,1.5-8.6-1.9-2.3h-13.7l-2.4,13.2Z"/>
    <path d="M677.7,139.7l6.7-38.3h-13.5l1.8-9.9h39.3l-1.8,9.9h-13.5l-6.7,38.3h-12.4Z"/>
    <path d="M707.1,139.7l1.7-9.8h25.3l2.7-2.3.9-5.4-1.9-2.3h-19.9l-6-7.3,2.4-13.9,8.6-7.3h31.8l-1.7,9.8h-24.6l-2.8,2.3-.7,4.3,1.9,2.3h19.9l6,7.3-2.6,15.1-8.6,7.3h-32.5Z"/>
    <path d="M199.9,194.2l-6-7.3,5.9-33.7,8.6-7.3h25.1l6,7.3-1.7,9.8h-12l1-5.4-2-2.3h-10.5l-2.7,2.3-4.5,25.1,2,2.3h10.9l2.8-2.3,1-5.5h12l-1.7,9.8-8.6,7.3h-25.5Z"/>
    <path d="M243.8,194.2l-6-7.3,5.9-33.7,8.6-7.3h28.5l6,7.3-5.9,33.7-8.6,7.3h-28.5ZM252.8,185h13.7l2.7-2.3,4.5-25.1-2-2.3h-13.6l-2.7,2.3-4.5,25.1,2,2.3Z"/>
    <path d="M287.1,194.2l8.5-48.2h12.4l-6.7,38.3h22.3l-1.8,9.9h-34.6Z"/>
    <path d="M327.1,194.2l8.5-48.2h12.4l-6.7,38.3h22.3l-1.8,9.9h-34.6Z"/>
    <path d="M367,194.2l8.5-48.2h36.9l-1.8,9.9h-24.5l-1.6,8.9h22.1l-1.6,9.2h-22.2l-1.8,10.2h24.5l-1.8,9.9h-36.9Z"/>
    <path d="M417.5,194.2l-6-7.3,5.9-33.7,8.6-7.3h27.2l6,7.3-1.6,8.9h-12c0,0,.8-4.6.8-4.6l-2-2.3h-12.6l-2.7,2.3-4.5,25,2,2.4h10.3l7.3-5.6.3-1.7h-8.8l1.6-9.4h20l-4.5,25.9h-10.5l.8-4.3-5.6,4.3h-19.9Z"/>
    <path d="M463.1,194.2l1.6-9.2h5.3l5.2-29.8h-5.2l1.6-9.2h22.5l-1.6,9.2h-5.3l-5.4,29.8h5.4l-1.6,9.2h-22.5Z"/>
    <path d="M487.6,194.2l22.9-48.2h20l5.5,48.2h-12.4l-.7-9.6h-17.2l-4.1,9.6h-13.9ZM509.5,175.2h12.6l-1.6-20h-2.4l-8.6,20Z"/>
    <path d="M545,194.2l6.7-38.3h-13.5l1.8-9.9h39.3l-1.8,9.9h-13.5l-6.7,38.3h-12.4Z"/>
    <path d="M575.6,194.2l8.5-48.2h36.9l-1.8,9.9h-24.5l-1.6,8.9h22.1l-1.6,9.2h-22.2l-1.8,10.2h24.5l-1.8,9.9h-36.9Z"/>
  </g>
  <path class="st0" d="M128.7,100.3l7.3-41.6h-41.6l-7.3,41.6,17.1,20.8,24.5-20.8ZM77,112.8h-41.6l-7.3,41.6h41.6l24.5-20.8-17.1-20.8ZM136.1,112.8l-24.5,20.8,17.1,20.8h41.6l7.3-41.6h-41.6ZM77,165.4l-7.3,41.6h41.6l7.3-41.6-17.1-20.8-24.5,20.8Z"/>
</svg>