<?xml version="1.0" encoding="UTF-8"?>
<svg id="Layer_1" xmlns="http://www.w3.org/2000/svg" version="1.1" viewBox="0 0 800 274.2">
  <!-- Generator: Adobe Illustrator 29.6.1, SVG Export Plug-In . SVG Version: 2.1.1 Build 9)  -->
  <defs>
    <style>
      .st0 {
        fill: #ff4635;
      }
    </style>
  </defs>
  <g>
    <path d="M260.1,102l8.4-48h-16.9l2.2-12.5h49.3l-2.2,12.5h-16.9l-8.4,48h-15.5Z"/>
    <path d="M298.4,102l10.7-60.4h46.2l-2.2,12.5h-30.7l-2,11.1h27.7l-2,11.6h-27.8l-2.2,12.8h30.7l-2.2,12.5h-46.2Z"/>
    <path d="M348.6,102l20.1-31.6-9.3-28.8h16.5l6.7,22.6h3l12.3-22.6h18.9l-19.5,28.8,8.9,31.6h-17l-6.1-24h-3l-12.5,24h-19.1Z"/>
    <path d="M407.8,102l28.7-60.4h25l6.9,60.4h-15.6l-.9-12.1h-21.6l-5.1,12.1h-17.5ZM435.2,78.1h15.7l-2-25h-3l-10.8,25Z"/>
    <path d="M472.8,102l2.1-12.3h31.6l3.4-2.9,1.1-6.7-2.4-2.9h-24.9l-7.5-9.2,3-17.4,10.7-9.1h39.8l-2.1,12.3h-30.8l-3.4,2.9-.9,5.3,2.4,2.9h24.9l7.5,9.1-3.3,18.9-10.7,9.1h-40.7Z"/>
    <path d="M248.5,170.1l10.7-60.4h46.2l-2.2,12.5h-30.7l-2,11.1h27.7l-2,11.6h-27.8l-2.2,12.8h30.7l-2.2,12.5h-46.2Z"/>
    <path d="M303.1,170.1l2.1-12.3h31.6l3.4-2.9,1.1-6.7-2.4-2.9h-24.9l-7.5-9.2,3-17.4,10.7-9.1h39.8l-2.1,12.3h-30.8l-3.4,2.9-.9,5.3,2.4,2.9h24.9l7.5,9.1-3.3,18.9-10.7,9.1h-40.7Z"/>
    <path d="M362,170.1l10.7-60.4h40.7l7.5,9.1-4.1,23.3-10.7,9.1h-25.2l-3.4,18.9h-15.5ZM382.9,139.6h16.5l3.4-2.9,2.2-12.5-2.4-2.9h-16.5l-3.2,18.2Z"/>
    <path d="M425.9,170.1l-7.5-9.1,7.4-42.2,10.7-9.1h35.7l7.5,9.1-7.4,42.2-10.7,9.1h-35.7ZM437.3,158.5h17.2l3.4-2.9,5.6-31.4-2.5-2.9h-17.1l-3.4,2.9-5.6,31.4,2.5,2.9Z"/>
    <path d="M480.3,170.1l10.7-60.4h41.5l7.6,9.1-3.9,21.6-8.5,7.2,5.2,22.5h-14.7l-4.3-20.6h-14.4l-3.6,20.6h-15.5ZM501.4,137.9h17.2l3.4-2.9,1.9-10.8-2.4-2.9h-17.2l-3,16.6Z"/>
    <path d="M551,170.1l8.4-48h-16.9l2.2-12.5h49.3l-2.2,12.5h-16.9l-8.4,48h-15.5Z"/>
    <path d="M587.8,170.1l2.1-12.3h31.6l3.4-2.9,1.1-6.7-2.4-2.9h-24.9l-7.5-9.2,3-17.4,10.7-9.1h39.8l-2.1,12.3h-30.8l-3.4,2.9-.9,5.3,2.4,2.9h24.9l7.5,9.1-3.3,18.9-10.7,9.1h-40.7Z"/>
    <path d="M245.6,238.3l-7.5-9.1,7.4-42.2,10.7-9.1h31.4l7.5,9.1-2.1,12.2h-15.1l1.2-6.8-2.5-2.9h-13.2l-3.4,2.9-5.6,31.4,2.5,2.9h13.7l3.5-2.9,1.2-6.9h15l-2.1,12.3-10.7,9.1h-32Z"/>
    <path d="M300.5,238.3l-7.5-9.1,7.4-42.2,10.7-9.1h35.7l7.5,9.1-7.4,42.2-10.7,9.1h-35.7ZM311.9,226.7h17.2l3.4-2.9,5.6-31.4-2.5-2.9h-17.1l-3.4,2.9-5.6,31.4,2.5,2.9Z"/>
    <path d="M354.8,238.3l10.7-60.4h15.5l-8.4,48h27.9l-2.2,12.5h-43.4Z"/>
    <path d="M404.8,238.3l10.7-60.4h15.5l-8.4,48h27.9l-2.2,12.5h-43.4Z"/>
    <path d="M454.8,238.3l10.7-60.4h46.2l-2.2,12.5h-30.7l-2,11.1h27.7l-2,11.6h-27.8l-2.2,12.8h30.7l-2.2,12.5h-46.2Z"/>
    <path d="M518,238.3l-7.5-9.1,7.4-42.2,10.7-9.1h31.4l7.5,9.1-2.1,12.2h-15.1l1.2-6.8-2.5-2.9h-13.2l-3.4,2.9-5.6,31.4,2.5,2.9h13.7l3.5-2.9,1.2-6.9h15l-2.1,12.3-10.7,9.1h-32Z"/>
    <path d="M577.1,238.3l8.4-48h-16.9l2.2-12.5h49.3l-2.2,12.5h-16.9l-8.4,48h-15.5Z"/>
    <path d="M613,238.3l2-11.6h6.6l6.5-37.3h-6.6l2-11.6h28.2l-2,11.6h-6.6l-6.7,37.3h6.8l-2,11.6h-28.2Z"/>
    <path d="M660.2,238.3l-4.7-60.4h17l1.4,48.9h3l18.6-48.9h18.7l-26.6,60.4h-27.3Z"/>
    <path d="M707.9,238.3l10.7-60.4h46.2l-2.2,12.5h-30.7l-2,11.1h27.7l-2,11.6h-27.8l-2.2,12.8h30.7l-2.2,12.5h-46.2Z"/>
  </g>
  <path class="st0" d="M159.2,98.1l9-50.9h-50.9l-9,50.9,20.9,25.4,29.9-25.4ZM96,113.4h-50.9l-9,50.9h50.9l29.9-25.4-20.9-25.4ZM168.2,113.4l-29.9,25.4,20.9,25.4h50.9l9-50.9h-50.9ZM96,177.7l-9,50.9h50.9l9-50.9-20.9-25.4-29.9,25.4Z"/>
</svg>